<svg id="SvgjsSvg1012" width="288" height="288" xmlns="http://www.w3.org/2000/svg" version="1.1" xmlns:xlink="http://www.w3.org/1999/xlink" xmlns:svgjs="http://svgjs.com/svgjs"><defs id="SvgjsDefs1013"></defs><g id="SvgjsG1014"><svg xmlns="http://www.w3.org/2000/svg" enable-background="new 0 0 512 512" viewBox="0 0 512 512" width="288" height="288"><path d="M256,72C154.542,72,72,154.542,72,256s82.542,184,184,184s184-82.542,184-184S357.458,72,256,72z M383.837,147.127		c-6.462,3.306-13.197,6.338-20.154,9.103c-4.661-10.392-10.076-20.175-16.22-29.187c-5.673-8.32-11.809-15.743-18.315-22.263
		C350.198,115.003,368.802,129.498,383.837,147.127z M393.779,352.013c-7.71-4.069-15.786-7.772-24.164-11.101
		c2.432-6.774,4.563-13.757,6.389-20.912H400c4.418,0,8-3.582,8-8v-24c0-9.551-4.211-18.132-10.868-24h26.673
		C422.268,296.618,411.383,326.827,393.779,352.013z M88.195,264h16.818c-0.661,2.558-1.013,5.239-1.013,8v24c0,4.418,3.582,8,8,8
		h20.468c2.372,12.809,5.689,25.174,9.909,36.913c-8.375,3.329-16.449,7.032-24.157,11.1C100.617,326.827,89.732,296.618,88.195,264
		z M118.226,159.98c7.695,4.061,15.747,7.765,24.108,11.089c-4.27,11.829-7.619,24.295-10.004,37.212
		C120.832,210.053,112,220.014,112,232c0,5.401,1.794,10.39,4.816,14.404c-0.672,0.505-1.319,1.04-1.949,1.596H88.195
		C89.732,215.379,100.619,185.167,118.226,159.98z M392,288v16h-32v-16c0-8.822,7.178-16,16-16S392,279.178,392,288z M376,256
		c-4.411,0-8-3.589-8-8s3.589-8,8-8s8,3.589,8,8S380.411,256,376,256z M352,248h-32.062c-0.082-5.382-0.247-10.716-0.483-16H336
		c4.418,0,8-3.582,8-8v-24c0-6.905-2.206-13.302-5.94-18.536c5.622-1.494,11.151-3.145,16.579-4.941
		c5.489,15.269,9.449,31.946,11.569,49.574C357.844,229.851,352,238.253,352,248z M200,144c0-4.411,3.589-8,8-8s8,3.589,8,8
		s-3.589,8-8,8S200,148.411,200,144z M296,216v-16c0-8.822,7.178-16,16-16s16,7.178,16,16v16H296z M312,168c-4.411,0-8-3.589-8-8
		s3.589-8,8-8s8,3.589,8,8S316.411,168,312,168z M292.432,173.87c-9.358,1.096-18.856,1.773-28.432,2.016v-84.86
		c8.459,6.171,17.142,21.477,23.975,42.949c1.339,4.208,2.59,8.62,3.771,13.176C289.378,150.868,288,155.275,288,160
		C288,165.165,289.646,169.95,292.432,173.87z M238.845,175.5c-1.907-6.913-6.074-12.898-11.662-17.096
		C230.206,154.39,232,149.401,232,144c0-6.078-2.276-11.632-6.014-15.866c6.492-18.404,14.344-31.514,22.014-37.109v84.858
		C244.939,175.803,241.888,175.67,238.845,175.5z M192,184c0-8.822,7.178-16,16-16s16,7.178,16,16v16h-32V184z M232,216
		c4.418,0,8-3.582,8-8v-16.419c2.661,0.133,5.327,0.237,8,0.305V248h-39.934c0.162-10.9,0.654-21.594,1.445-32H232z M248,264v17.376
		c-9.311,3.302-16,12.194-16,22.624c0,5.401,1.794,10.39,4.816,14.405c-0.963,0.724-1.88,1.506-2.755,2.331
		c-7.339,0.489-14.621,1.221-21.821,2.19c-2.462-18.493-3.888-38.373-4.182-58.926H248z M272,344v16h-32v-16c0-8.822,7.178-16,16-16
		S272,335.178,272,344z M248,304c0-4.411,3.589-8,8-8s8,3.589,8,8s-3.589,8-8,8S248,308.411,248,304z M224.645,337.594
		c-0.422,2.07-0.645,4.212-0.645,6.406v24c0,4.418,3.582,8,8,8h16v44.974c-8.459-6.171-17.142-21.477-23.975-42.949
		c-3.75-11.786-6.885-25.008-9.363-39.272C217.972,338.312,221.301,337.93,224.645,337.594z M264,420.974V376h16
		c4.418,0,8-3.582,8-8v-24c0-2.185-0.222-4.32-0.641-6.383c3.342,0.335,6.666,0.725,9.973,1.165
		c-2.476,14.253-5.61,27.465-9.357,39.243C281.142,399.498,272.459,414.803,264,420.974z M277.952,320.749
		c-0.879-0.83-1.8-1.617-2.768-2.344C278.206,314.39,280,309.401,280,304c0-10.429-6.689-19.322-16-22.624V264h39.941
		c-0.294,20.557-1.72,40.441-4.183,58.936C292.563,321.969,285.286,321.237,277.952,320.749z M264,248v-56.108
		c5.793-0.141,11.561-0.43,17.292-0.872c-0.835,2.851-1.292,5.863-1.292,8.98v24c0,4.418,3.582,8,8,8h15.443
		c0.241,5.278,0.409,10.613,0.493,16H264z M335.324,165.641c0.438-1.81,0.676-3.698,0.676-5.641c0-13.234-10.766-24-24-24
		c-2.238,0-4.402,0.314-6.458,0.89c-0.748-2.643-1.517-5.243-2.32-7.766c-4.654-14.626-9.684-25.661-14.805-33.938
		c24.776,11.26,45.948,35.073,60.21,66.491C344.262,163.102,339.824,164.421,335.324,165.641z M223.591,95.18
		c-4.036,6.524-8.015,14.764-11.798,25.122C210.557,120.105,209.291,120,208,120c-13.234,0-24,10.766-24,24
		c0,5.401,1.794,10.39,4.816,14.404c-3.066,2.304-5.7,5.149-7.774,8.386c-6.002-1.525-11.903-3.225-17.673-5.111
		C177.634,130.256,198.81,106.44,223.591,95.18z M176.067,182.023c-0.04,0.655-0.067,1.313-0.067,1.977v24c0,4.418,3.582,8,8,8
		h9.477c-0.772,10.431-1.253,21.123-1.412,32h-34.933c-0.63-0.555-1.277-1.091-1.949-1.596C158.206,242.39,160,237.401,160,232
		c0-8.845-4.813-16.582-11.953-20.744c2.247-12.181,5.383-23.813,9.303-34.723C163.463,178.556,169.712,180.384,176.067,182.023z
		 M152,272v16h-32v-16c0-8.822,7.178-16,16-16S152,263.178,152,272z M128,232c0-4.411,3.589-8,8-8s8,3.589,8,8s-3.589,8-8,8
		S128,236.411,128,232z M148.715,304H160c4.418,0,8-3.582,8-8v-24c0-2.761-0.352-5.442-1.013-8h25.071
		c0.299,21.392,1.795,42.129,4.388,61.455c-13.45,2.505-26.528,5.853-39.053,9.998C153.827,325.522,150.904,314.997,148.715,304z
		 M198.872,341.285c2.609,15.082,5.928,29.086,9.907,41.591c4.652,14.622,9.681,25.658,14.801,33.934
		c-24.76-11.262-45.911-35.074-60.161-66.482C174.799,346.61,186.662,343.579,198.872,341.285z M288.402,416.825
		c5.126-8.278,10.161-19.309,14.82-33.948c3.977-12.498,7.294-26.494,9.903-41.566c12.209,2.29,24.074,5.311,35.455,9.025
		C334.324,381.749,313.168,405.567,288.402,416.825z M315.552,325.461c2.594-19.328,4.09-40.067,4.389-61.461h34.926
		C348.211,269.868,344,278.449,344,288v24c0,4.418,3.582,8,8,8h7.494c-1.459,5.293-3.092,10.451-4.89,15.457
		C342.078,331.314,329.002,327.965,315.552,325.461z M400,248c0-11.106-7.584-20.471-17.844-23.196
		c-2.216-18.842-6.425-36.938-12.492-53.744c8.36-3.324,16.415-7.022,24.109-11.082c17.608,25.188,28.495,55.4,30.032,88.022H400z
		 M182.859,104.776c-6.508,6.522-12.648,13.944-18.322,22.266c-6.144,9.012-11.551,18.802-16.212,29.193
		c-6.96-2.766-13.698-5.801-20.162-9.109C143.2,129.496,161.806,115,182.859,104.776z M128.179,364.893
		c6.469-3.311,13.204-6.354,20.169-9.122c4.648,10.392,10.047,20.179,16.189,29.187c5.671,8.318,11.805,15.74,18.309,22.26
		C161.806,396.997,143.21,382.51,128.179,364.893z M329.164,407.212c6.501-6.516,12.63-13.941,18.299-22.255
		c6.142-9.008,11.549-18.786,16.192-29.18c6.964,2.766,13.698,5.806,20.166,9.116C368.792,382.508,350.2,396.993,329.164,407.212z" fill="#ffffff" class="color000 svgShape"></path><path d="M436.786 120h15.727c4.418 0 8-3.582 8-8s-3.582-8-8-8h-33.941c-4.418 0-8 3.582-8 8v33.941c0 4.418 3.582 8 8 8s8-3.582 8-8v-13.201c67.133 81.626 62.593 202.824-13.657 279.074-40.253 40.253-93.575 60.973-147.259 60.969-36.481-.003-73.13-9.589-105.938-29.106C159.903 442.478 160 441.25 160 440c0-13.234-10.766-24-24-24s-24 10.766-24 24 10.766 24 24 24c6.198 0 11.854-2.362 16.117-6.232 35.195 20.799 74.443 31.015 113.532 31.013 57.804-.002 115.24-22.314 158.58-65.654 42.308-42.308 65.608-98.56 65.608-158.392C489.837 211.125 471.112 160.404 436.786 120zM136 448c-4.411 0-8-3.589-8-8s3.589-8 8-8 8 3.589 8 8S140.411 448 136 448zM93.428 358.059c-4.418 0-8 3.582-8 8v13.206c-67.135-81.626-62.594-202.827 13.657-279.078 67.608-67.608 172.114-80.093 253.196-31.853C352.096 69.529 352 70.753 352 72c0 13.234 10.766 24 24 24s24-10.766 24-24-10.766-24-24-24c-6.2 0-11.858 2.363-16.122 6.236-87.245-51.552-199.46-38.01-272.107 34.637-42.308 42.308-65.608 98.56-65.608 158.392 0 53.607 18.717 104.33 53.037 144.735H59.487c-4.418 0-8 3.582-8 8s3.582 8 8 8h33.941c4.418 0 8-3.582 8-8v-33.941C101.428 361.641 97.846 358.059 93.428 358.059zM376 64c4.411 0 8 3.589 8 8s-3.589 8-8 8-8-3.589-8-8S371.589 64 376 64z" fill="#ffffff" class="color000 svgShape"></path></svg></g></svg>