<svg width="447" height="441" viewBox="0 0 447 441" fill="none" xmlns="http://www.w3.org/2000/svg">
<path d="M197.517 103.162V94.747C197.517 88.015 207.896 88.015 207.896 94.747V103.162C207.896 109.894 197.517 109.894 197.517 103.162ZM212.384 133.736C224.726 139.066 235.105 134.017 235.666 133.736C242.118 131.492 238.471 121.674 232.02 123.918C230.898 124.199 225.007 127.845 216.312 123.918C210.14 121.394 206.213 130.931 212.384 133.736ZM271.289 334.576C271.289 361.504 249.41 383.664 222.201 383.664C195.273 383.664 173.113 361.785 173.113 334.576C173.113 307.648 194.992 285.488 222.201 285.488C249.41 285.488 271.57 307.367 271.289 334.576ZM260.911 334.576C260.911 313.258 243.52 295.867 222.202 295.867C200.884 295.867 183.493 313.258 183.493 334.576C183.493 355.894 200.884 373.285 222.202 373.285C243.8 373.285 261.191 355.894 260.911 334.576ZM446.883 425.178V434.996C446.883 437.801 444.639 440.045 441.834 440.045H296.254H150.674H5.09301C2.28801 440.045 0.0440063 437.801 0.0440063 434.996V425.178C0.0440063 405.823 15.752 390.396 34.826 390.396H109.159V371.041C77.743 398.811 27.533 376.37 27.533 334.295C27.533 292.22 77.743 269.78 109.159 297.549V257.437C109.159 254.632 111.403 252.388 114.208 252.388H137.77V191.8C137.77 167.957 157.125 148.603 180.967 148.603H187.419C177.041 140.749 169.747 128.968 168.064 115.504H158.246C147.306 115.504 138.33 106.809 138.33 95.869C138.611 94.186 134.964 75.673 152.916 70.904V60.525C152.916 27.145 180.125 0.217041 213.224 0.217041H233.42C266.8 0.217041 293.728 27.426 293.728 60.525V70.904C311.4 75.672 308.034 94.747 308.314 95.869C308.314 106.809 299.338 115.504 288.398 115.504H278.58C276.616 128.968 269.604 140.749 259.225 148.603H265.677C289.52 148.603 308.874 167.958 308.874 191.8V252.388H332.717C335.522 252.388 337.766 254.632 337.766 257.437V295.866C370.304 270.621 417.148 293.903 417.148 334.575C417.148 375.528 370.024 398.249 337.766 373.284V390.675H412.099C431.175 390.676 446.883 406.384 446.883 425.178ZM367.782 373.285C389.1 373.285 406.491 355.894 406.491 334.576C406.491 297.269 358.806 281.561 336.646 311.575C317.852 336.539 335.804 373.285 367.782 373.285ZM251.374 158.701C259.789 178.336 263.436 180.58 260.911 184.788C258.387 188.996 254.74 186.471 233.983 187.313L241.557 252.109H268.766V221.534C268.766 214.802 279.145 214.802 279.145 221.534V252.109H298.5V191.8C298.5 173.848 283.914 158.981 265.681 158.981L251.374 158.701ZM234.543 160.104V158.982C234.824 158.982 229.494 158.982 229.214 158.982C230.055 158.982 216.03 158.982 212.945 158.982V160.104C212.945 165.994 217.713 170.763 223.604 170.763C229.494 170.763 234.263 165.994 234.543 160.104ZM223.043 183.666L214.908 252.108H231.177L223.043 183.666ZM248.568 176.934L243.519 165.994C242.397 170.482 239.592 174.129 235.945 176.934H248.568ZM279.985 85.771L279.144 90.259V105.126H288.401C293.731 105.126 297.938 100.918 297.938 95.869V89.698C297.937 79.88 284.473 76.795 279.985 85.771ZM167.504 89.698C167.504 77.356 148.71 77.356 148.71 89.698V95.869C148.71 100.918 152.918 105.126 158.247 105.126H167.504V89.698ZM172.272 75.953L210.981 48.464C222.201 40.61 223.604 82.124 269.886 84.649C271.85 77.356 278.021 72.307 283.631 70.905V60.526C283.631 33.037 261.191 10.597 233.702 10.597H213.506C186.017 10.597 163.577 33.037 163.577 60.526V70.624C165.82 71.465 169.748 73.428 172.272 75.953ZM208.457 147.481C214.909 149.164 219.958 148.322 228.653 148.603C250.252 148.603 268.484 131.212 268.484 108.772V95.027C260.911 94.747 253.617 93.344 246.886 90.819C250.532 93.344 248.569 96.71 249.13 103.161C249.13 109.893 238.751 109.893 238.751 103.161V94.746C238.751 91.66 241.276 89.1361 244.922 89.6971C222.482 80.1601 214.628 62.488 212.384 59.683L177.882 84.087V89.6971V108.49C177.882 127.285 190.505 143.273 208.457 147.481ZM203.688 166.835L198.919 176.933H210.981C207.615 174.409 204.81 171.043 203.688 166.835ZM147.869 252.108H167.224V221.533C167.224 214.801 177.603 214.801 177.603 221.533V252.108H204.251L212.105 187.312H190.506C186.579 187.312 184.054 183.385 185.737 180.019L195.555 158.981H180.969C163.017 158.981 148.15 173.567 148.15 191.8L147.869 252.108ZM109.72 354.772C125.709 329.527 106.915 295.867 76.621 295.867C55.303 295.867 37.912 313.258 37.912 334.576C37.912 373.565 89.524 388.151 109.72 354.772ZM145.624 425.458C145.624 413.957 137.49 403.859 125.989 401.615C122.904 400.774 128.514 401.054 34.826 401.054C21.362 401.054 10.422 411.994 10.422 425.458V429.946H145.624V425.458ZM290.924 425.458C290.924 411.994 279.984 401.054 266.52 401.054H180.125C166.661 401.054 155.721 411.994 155.721 425.458V429.946H290.923V425.458H290.924ZM327.67 390.395V362.064C315.889 345.515 316.45 322.794 327.67 306.525V262.486H237.629C237.349 262.486 237.349 262.486 237.349 262.486H209.299C209.018 262.486 209.018 262.486 209.018 262.486H119.538V310.171C127.953 324.757 128.233 343.831 119.538 358.698V390.675C120.66 390.675 124.026 390.395 127.953 391.236C137.49 393.2 145.625 399.09 150.674 407.225C156.845 397.407 167.504 390.676 180.127 390.676H266.521C279.144 390.676 290.083 397.408 296.535 407.225C307.754 388.712 327.39 390.395 327.67 390.395ZM436.505 425.458C436.505 411.994 425.565 401.054 412.101 401.054C373.111 401.054 350.671 401.054 325.707 401.054C312.243 401.054 301.303 411.994 301.303 425.458V429.946H436.505V425.458ZM14.069 158.42V107.65C14.069 99.796 20.521 93.625 28.094 93.625H117.013C124.867 93.625 131.038 100.076 131.038 107.65V158.421C131.038 166.275 124.587 172.446 117.013 172.446H86.719C86.439 179.459 88.963 188.435 81.67 188.435C78.865 188.435 79.706 187.594 56.425 172.446H28.094C20.521 172.446 14.069 166.275 14.069 158.42ZM24.448 158.14C24.448 160.104 26.131 161.786 28.094 161.786C69.047 163.469 51.095 156.737 76.621 173.287V167.116C76.621 164.311 78.865 162.067 81.67 162.067H117.013C118.976 162.067 120.659 160.384 120.659 158.421V107.65C120.659 105.686 118.976 104.004 117.013 104.004H28.094C26.13 104.004 24.448 105.687 24.448 107.65V158.14ZM40.436 143.554C50.534 143.554 50.534 128.407 40.436 128.407C30.338 128.407 30.338 143.554 40.436 143.554ZM71.291 143.554C81.389 143.554 81.389 128.407 71.291 128.407C61.193 128.407 61.193 143.554 71.291 143.554ZM110.001 135.98C110.001 131.772 106.635 128.407 102.427 128.407C98.219 128.407 94.853 131.773 94.853 135.98C94.854 146.078 110.001 146.078 110.001 135.98Z" fill="white"/>
</svg>
