<svg width="30" height="30" viewBox="0 0 30 30" fill="none" xmlns="http://www.w3.org/2000/svg">
<path d="M15 16C10.589 16 7 12.411 7 8C7 3.589 10.589 0 15 0C19.411 0 23 3.589 23 8C23 12.411 19.411 16 15 16ZM15 2C11.691 2 9 4.691 9 8C9 11.309 11.691 14 15 14C18.309 14 21 11.309 21 8C21 4.691 18.309 2 15 2Z" fill="white"/>
<path d="M15.4 12.2H14.6C14.0395 12.1978 13.4946 12.0154 13.0456 11.6798C12.5967 11.3441 12.2677 10.873 12.107 10.336C12.0665 10.2091 12.0517 10.0754 12.0636 9.94271C12.0755 9.81001 12.1137 9.68102 12.1761 9.56332C12.2386 9.44562 12.3239 9.34158 12.4271 9.2573C12.5302 9.17303 12.6492 9.11023 12.777 9.07258C12.9048 9.03493 13.0389 9.02321 13.1713 9.03808C13.3036 9.05296 13.4317 9.09414 13.548 9.1592C13.6643 9.22427 13.7663 9.31191 13.8482 9.41698C13.9302 9.52205 13.9903 9.64243 14.025 9.77105C14.1 10.024 14.337 10.201 14.6 10.201H15.4C15.5593 10.201 15.712 10.1378 15.8246 10.0252C15.9372 9.91255 16.0005 9.75981 16.0005 9.60055C16.0005 9.44129 15.9372 9.28855 15.8246 9.17593C15.712 9.06332 15.5593 9.00005 15.4 9.00005H14.6C13.166 9.00005 12 7.83305 12 6.40005C12 4.96705 13.166 3.80005 14.6 3.80005H15.4C16.521 3.80005 17.511 4.51405 17.866 5.57805C17.9096 5.70311 17.9279 5.83558 17.9199 5.96777C17.9118 6.09997 17.8776 6.22925 17.8192 6.34811C17.7608 6.46697 17.6794 6.57305 17.5796 6.66019C17.4799 6.74732 17.3638 6.81378 17.2382 6.8557C17.1126 6.89762 16.9799 6.91417 16.8478 6.90438C16.7157 6.8946 16.5869 6.85868 16.4688 6.7987C16.3508 6.73873 16.2458 6.6559 16.16 6.55502C16.0742 6.45414 16.0093 6.33722 15.969 6.21105C15.9296 6.09131 15.8533 5.9871 15.7511 5.91328C15.649 5.83947 15.5261 5.79984 15.4 5.80005H14.6C14.4409 5.80005 14.2883 5.86326 14.1757 5.97578C14.0632 6.08831 14 6.24092 14 6.40005C14 6.55918 14.0632 6.71179 14.1757 6.82431C14.2883 6.93683 14.4409 7.00005 14.6 7.00005H15.4C16.834 7.00005 18 8.16705 18 9.60005C18 11.033 16.834 12.2 15.4 12.2Z" fill="white"/>
<path d="M15 4.99995C14.729 4.99995 14.479 4.88995 14.29 4.70995C14.25 4.65995 14.2 4.60995 14.17 4.54995C14.1304 4.49894 14.0999 4.44142 14.08 4.37995C14.0512 4.32314 14.0307 4.26254 14.019 4.19995C14.01 4.12995 14 4.06995 14 3.99995C14 3.73995 14.109 3.47995 14.29 3.28995C14.66 2.91995 15.33 2.91995 15.71 3.28995C15.89 3.47995 16 3.73995 16 3.99995C16 4.06995 15.99 4.12995 15.979 4.19995C15.9686 4.26273 15.9483 4.32347 15.919 4.37995C15.8987 4.44125 15.8683 4.49871 15.829 4.54995C15.789 4.60995 15.749 4.65995 15.709 4.70995C15.52 4.88995 15.26 4.99995 15 4.99995ZM15 13C14.729 13 14.479 12.89 14.29 12.71C14.25 12.66 14.2 12.61 14.17 12.55C14.1304 12.4989 14.0999 12.4414 14.08 12.38C14.0512 12.3231 14.0307 12.2625 14.019 12.2C14.01 12.13 14 12.07 14 12C14 11.74 14.109 11.48 14.29 11.29C14.66 10.92 15.33 10.92 15.71 11.29C15.89 11.48 16 11.74 16 12C16 12.07 15.99 12.13 15.979 12.2C15.9686 12.2627 15.9483 12.3235 15.919 12.38C15.8987 12.4412 15.8683 12.4987 15.829 12.55C15.789 12.61 15.749 12.66 15.709 12.71C15.52 12.89 15.26 13 15 13ZM17 30H1C0.734784 30 0.48043 29.8946 0.292893 29.7071C0.105357 29.5195 0 29.2652 0 29V20C0 19.735 0.105 19.4799 0.293 19.2929C0.527 19.0579 2.653 17 5 17C6.944 17 9.452 18.469 10.295 19H15C15.4377 19.0006 15.87 19.0969 16.2666 19.2821C16.6632 19.4673 17.0145 19.737 17.296 20.0722C17.5774 20.4074 17.7823 20.8 17.8961 21.2227C18.0099 21.6453 18.03 22.0877 17.955 22.5189L25.846 19.231C26.3018 19.0405 26.7976 18.9658 27.2893 19.0134C27.781 19.0611 28.2532 19.2296 28.664 19.504C29.0754 19.7774 29.4127 20.1485 29.6458 20.584C29.8789 21.0195 30.0006 21.506 30 22C30.0001 22.1748 29.9543 22.3465 29.8673 22.4981C29.7802 22.6497 29.655 22.7759 29.504 22.864L17.504 29.864C17.3509 29.953 17.1771 29.9999 17 30ZM2 28H16.729L27.869 21.502C27.7913 21.368 27.6839 21.2537 27.555 21.1679C27.4186 21.0753 27.2612 21.0185 27.0971 21.0026C26.933 20.9867 26.7676 21.0123 26.616 21.077L17.386 24.923C17.2637 24.9738 17.1325 24.9999 17 25H9C8.73478 25 8.48043 24.8946 8.29289 24.7071C8.10536 24.5195 8 24.2652 8 24C8 23.7347 8.10536 23.4804 8.29289 23.2928C8.48043 23.1053 8.73478 23 9 23H15C15.2575 22.9884 15.5006 22.878 15.6787 22.6918C15.8569 22.5055 15.9563 22.2577 15.9563 22C15.9563 21.7422 15.8569 21.4944 15.6787 21.3081C15.5006 21.1219 15.2575 21.0115 15 21H10C9.803 21 9.609 20.941 9.445 20.833C8.68 20.323 6.387 19 5 19C3.91 19 2.653 19.8799 2 20.4389V28Z" fill="white"/>
</svg>
