<svg width="32" height="32" viewBox="0 0 32 32" fill="none" xmlns="http://www.w3.org/2000/svg">
<path d="M6 16.5C6.27614 16.5 6.5 16.2761 6.5 16C6.5 15.7239 6.27614 15.5 6 15.5C5.72386 15.5 5.5 15.7239 5.5 16C5.5 16.2761 5.72386 16.5 6 16.5Z" fill="white"/>
<path d="M21.32 13.62C21.0163 12.4402 20.3287 11.395 19.3655 10.649C18.4023 9.90308 17.2183 9.49884 16 9.5C14.5421 9.50265 13.1447 10.083 12.1138 11.1138C11.083 12.1447 10.5026 13.5421 10.5 15V21.5H10C9.72 21.5 9.5 21.72 9.5 22C9.5 22.28 9.72 22.5 10 22.5H22C22.28 22.5 22.5 22.28 22.5 22C22.5 21.72 22.28 21.5 22 21.5H21.5V14C21.4987 13.9275 21.482 13.8561 21.451 13.7906C21.4199 13.7251 21.3753 13.6669 21.32 13.62ZM16 10.5C17.93 10.5 19.6 11.72 20.23 13.5H19C18.72 13.5 18.5 13.72 18.5 14V18.75C18.5 18.75 18.47 18.75 18.46 18.76C18.16 18.96 17.83 19.1 17.5 19.22V17.1C17.8 16.83 18 16.43 18 15.99C18 15.16 17.33 14.49 16.5 14.49V13.49C16.78 13.49 17 13.71 17 13.99C17 14.27 17.22 14.49 17.5 14.49C17.78 14.49 18 14.27 18 13.99C18 13.16 17.33 12.49 16.5 12.49V11.99C16.5 11.71 16.28 11.49 16 11.49C15.72 11.49 15.5 11.71 15.5 11.99V12.49C14.67 12.49 14 13.16 14 13.99C14 14.82 14.67 15.49 15.5 15.49V16.49C15.22 16.49 15 16.27 15 15.99C15 15.71 14.78 15.49 14.5 15.49C14.22 15.49 14 15.71 14 15.99C14 16.43 14.2 16.83 14.5 17.1V19.22C14.1619 19.1076 13.8394 18.9531 13.54 18.76C13.53 18.76 13.52 18.76 13.5 18.75V15C13.5 14.72 13.28 14.5 13 14.5H11.55C11.8 12.26 13.69 10.5 16 10.5ZM13.5 19.88C13.82 20.04 14.15 20.18 14.5 20.28V21.5H13.5V19.88ZM15.5 14.5C15.22 14.5 15 14.28 15 14C15 13.72 15.22 13.5 15.5 13.5V14.5ZM16.5 15.5C16.78 15.5 17 15.72 17 16C17 16.28 16.78 16.5 16.5 16.5V15.5ZM17.5 20.28C17.85 20.18 18.18 20.04 18.5 19.88V21.5H17.5V20.28ZM11.5 21.5V15.5H12.5V21.5H11.5ZM15.5 21.5V17.5H16.5V21.5H15.5ZM19.5 21.5V14.5H20.5V21.5H19.5Z" fill="white"/>
<path d="M30 1.5H26C25.72 1.5 25.5 1.72 25.5 2C25.5 2.28 25.71 2.48 25.97 2.49L21.43 7.03C19.7956 6.02931 17.9164 5.49973 16 5.49973C14.0836 5.49973 12.2044 6.02931 10.57 7.03L6.03 2.49C6.29 2.47 6.5 2.26 6.5 2C6.5 1.74 6.28 1.5 6 1.5H2C1.72 1.5 1.5 1.72 1.5 2V6C1.5 6.28 1.72 6.5 2 6.5C2.28 6.5 2.48 6.29 2.49 6.03L7.02 10.56C6.41 11.57 5.96 12.68 5.71 13.89C5.65 14.16 5.83 14.43 6.1 14.48C6.37 14.54 6.64 14.36 6.69 14.09C7.59 9.69 11.5 6.5 16 6.5C21.24 6.5 25.5 10.76 25.5 16C25.5 21.24 21.24 25.5 16 25.5C11.51 25.5 7.59 22.31 6.69 17.91C6.67687 17.8457 6.65119 17.7845 6.61443 17.7301C6.57768 17.6757 6.53056 17.629 6.47577 17.5928C6.42098 17.5566 6.3596 17.5315 6.29513 17.519C6.23065 17.5065 6.16435 17.5069 6.1 17.52C6.03565 17.5331 5.97452 17.5588 5.9201 17.5956C5.86567 17.6323 5.81902 17.6794 5.78281 17.7342C5.74659 17.789 5.72152 17.8504 5.70903 17.9149C5.69654 17.9793 5.69687 18.0457 5.71 18.11C5.96 19.31 6.41 20.43 7.02 21.44L2.49 25.97C2.47 25.71 2.26 25.5 2 25.5C1.74 25.5 1.5 25.72 1.5 26V30C1.5 30.28 1.72 30.5 2 30.5H6C6.28 30.5 6.5 30.28 6.5 30C6.5 29.72 6.29 29.52 6.03 29.51L10.57 24.97C12.17 25.94 14.03 26.5 16 26.5C17.97 26.5 19.85 25.93 21.43 24.97L25.97 29.51C25.71 29.53 25.5 29.74 25.5 30C25.5 30.26 25.72 30.5 26 30.5H30C30.28 30.5 30.5 30.28 30.5 30V26C30.5 25.72 30.28 25.5 30 25.5C29.72 25.5 29.52 25.71 29.51 25.97L24.97 21.43C25.94 19.84 26.5 17.99 26.5 16C26.5 14.01 25.93 12.15 24.97 10.57L29.51 6.03C29.53 6.29 29.74 6.5 30 6.5C30.26 6.5 30.5 6.28 30.5 6V2C30.5 1.72 30.28 1.5 30 1.5ZM7.6 9.72L2.5 4.62V2.5H4.62L9.72 7.6C8.92 8.2 8.2 8.91 7.59 9.71L7.6 9.72ZM4.62 29.5H2.5V27.38L7.6 22.28C8.21 23.09 8.93 23.79 9.73 24.39L4.63 29.49L4.62 29.5ZM29.5 27.38V29.5H27.38L22.28 24.4C23.08 23.8 23.8 23.08 24.4 22.28L29.5 27.38ZM22.28 7.6L27.38 2.5H29.5V4.62L24.4 9.72C23.8 8.92 23.08 8.2 22.28 7.6Z" fill="white"/>
</svg>
