<svg xmlns="http://www.w3.org/2000/svg" viewBox="0 0 64 64" id="business-crew"><path fill="#53af97" d="M25.93 36.04v5.82c-.12.1-.24.19-.35.26H.44c-.15-.11-.3-.22-.44-.35v-6.34c0-1.68 1.34-2.97 3.48-3.81 1.17-.46 2.12-.62 3.57-1.12l.02-.01c.1-.04.19-.07.3-.11.01 0 .01 0 .02-.01.34-.12.69-.26 1.08-.43l.19-.08.05-.02.01-.01h.01l.43.06h.01l1.64.25c0 .01.01 0 .01 0l2.14.31 1.99-.29 1.81-.26h.01l.24-.04.14-.02.05-.01.22.1c.36.16.68.3.98.39l.22.1h.02c.07.04.16.06.23.08l.02.01c1.45.5 2.39.66 3.55 1.12 2.05.8 3.36 2 3.47 4.08.02.1.02.22.02.33z"></path><path fill="#e5e5e5" d="m17.16 29.82-2.67 12.3h-3.05l-2.71-12.3h8.24z"></path><path fill="#e4bf6d" d="M14.2 33.11c-.8.22-1.65.22-2.46 0-.92-.25-1.67-.59-2.14-1.61-.38-.84-.51-1.88-.54-2.8 0 0-.01-1.09-.02-1.1h7.85l-.02 1.1c-.03.93-.12 1.87-.51 2.72-.45 1.02-1.24 1.45-2.16 1.69z"></path><path fill="#687e87" d="M8.22 22.35c-.83-1.24-1.62-3.71-1.18-5.49.44-1.85 2.31-2.96 3.49-2.43 1.83-1.52 4.56-1.25 6.44-.11 1.5.9 2.3 2.28 2.26 4.21-.09 2.04-.75 2.93-1.72 4.03-.23-1.85-.54-2.79-1.68-3.86-.77 1-1.69 1.45-2.74 1.39l-2.87-.12c-.51.04-.85.5-1.2.91l-.15-1.24c-.5.49-.42 1.06-.65 2.71z"></path><path fill="#fbd984" d="M8.84 27.69c-.41-.71-.74-1.52-.93-2.53-.65-.56-.99-1.12-1.15-2.05-.17-.83.06-1.72.54-1.86.56-.13.66.15.96.56.11-1.63.42-2.51.84-2.69l.14 1.24c.53-.83.98-1.46 1.72-1.34l2.41.08c.98-.03 1.76-.43 2.29-1.26 1.25.84 1.77 2.31 1.85 4.19.24-.46.48-.57.72-.62 1.04.01.97 1.42.68 2.28-.29.73-.58 1.11-1.02 1.57-.23 1.05-.53 1.81-.87 2.42-.47.82-.98 1.56-1.67 2.18-.56.5-1.27.78-2 .79-.33 0-.68 0-1.02-.02-.76-.04-1.5-.37-2.04-.95-.63-.67-1.08-1.37-1.45-1.99z"></path><path fill="#5fc3ab" d="m17.56 35.62 1.84 1.25-2.93 5.25h-1.98l2.67-12.3h.05l1.41.58h.02l.99 5.14zM11.45 42.12l-2.72-12.3-.02.01-.05.02-1.26.51-.03.01-1.06 5.17 2.06.08-1.84 1.25 2.94 5.25h1.97z"></path><path fill="#dd655b" d="M13.56 35.7h-1.19c-.17 0-.33-.11-.39-.27a8.1 8.1 0 0 1-.5-1.34.62.62 0 0 1 .59-.81h1.77c.42 0 .72.41.6.81-.14.51-.29.88-.5 1.34-.05.17-.21.27-.38.27z"></path><path fill="#dd655b" d="M14.49 42.12h-3.04l.77-6.45h1.5z"></path><path fill="#f0f3f5" d="M8.73 29.82h.42c.02 0 0-.01 0 0 .68 2.23 2.1 3.31 3.74 3.45l-2.41 2.6c-.95-2.02-1.44-4.33-1.75-6.05z"></path><path fill="#f0f3f5" d="M17.2 29.82h-.42c-.02 0 0-.01 0 0-.68 2.23-2.25 3.31-3.89 3.45l2.41 2.6c.95-2.02 1.59-4.33 1.9-6.05z"></path><path fill="#3facd7" d="M64 36.04v5.82c-.12.1-.24.19-.35.26H38.51c-.16-.11-.3-.22-.44-.35v-6.34c0-1.68 1.34-2.97 3.48-3.81 1.17-.47 2.12-.62 3.57-1.12l.02-.01c.1-.04.19-.07.3-.11.01 0 .01 0 .02-.01.34-.12.69-.26 1.08-.43l.19-.08.05-.02.01-.01h.01l.43.06h.01l1.64.25c0 .01.01 0 .01 0l2.14.31 1.99-.29 1.81-.26h.01l.24-.04.14-.02.05-.01.22.1c.36.16.68.3.98.39l.22.1h.02c.07.04.16.06.23.08l.02.01c1.45.5 2.39.66 3.55 1.12 2.05.8 3.36 2 3.47 4.08.02.1.02.22.02.33z"></path><path fill="#e5e5e5" d="m55.23 29.82-2.67 12.3h-3.05l-2.71-12.3h8.24z"></path><path fill="#e4bf6d" d="M52.27 33.11c-.8.22-1.65.22-2.46 0-.92-.25-1.67-.59-2.14-1.61-.38-.84-.51-1.88-.54-2.8 0 0-.01-1.09-.02-1.1h7.85l-.02 1.1c-.03.93-.12 1.87-.51 2.72-.45 1.02-1.24 1.45-2.16 1.69z"></path><path fill="#687e87" d="M46.29 22.35c-.83-1.24-1.62-3.71-1.18-5.49.44-1.85 2.31-2.96 3.49-2.43 1.83-1.52 4.56-1.25 6.44-.11 1.5.9 2.3 2.28 2.26 4.21-.09 2.04-.75 2.93-1.72 4.03-.23-1.85-.54-2.79-1.68-3.86-.77 1-1.69 1.45-2.74 1.39l-2.87-.12c-.51.04-.85.5-1.2.91l-.15-1.24c-.5.49-.42 1.06-.65 2.71z"></path><path fill="#fbd984" d="M46.91 27.69c-.41-.71-.74-1.52-.93-2.53-.65-.56-.99-1.12-1.15-2.05-.17-.83.06-1.72.54-1.86.56-.13.66.15.96.56.11-1.63.42-2.51.84-2.69l.14 1.24c.53-.83.98-1.46 1.72-1.34l2.41.08c.98-.03 1.76-.43 2.29-1.26 1.25.84 1.77 2.31 1.85 4.19.24-.46.48-.57.72-.62 1.04.01.97 1.42.68 2.28-.29.73-.58 1.11-1.02 1.57-.23 1.05-.53 1.81-.87 2.42-.47.82-.98 1.56-1.67 2.18-.56.5-1.27.78-2 .79-.33 0-.68 0-1.02-.02-.76-.04-1.5-.37-2.04-.95-.63-.67-1.08-1.37-1.45-1.99z"></path><path fill="#5bcaee" d="m55.63 35.62 1.84 1.25-2.93 5.25h-1.98l2.67-12.3h.05l1.41.58h.02l.99 5.14zM49.52 42.12l-2.72-12.3-.02.01-.05.02-1.26.51-.03.01-1.06 5.17 2.06.08-1.84 1.25 2.94 5.25h1.97z"></path><path fill="#dd655b" d="M51.63 35.7h-1.19c-.17 0-.33-.11-.39-.27a8.1 8.1 0 0 1-.5-1.34.62.62 0 0 1 .59-.81h1.77c.42 0 .72.41.59.81-.14.51-.29.88-.5 1.34-.04.17-.2.27-.37.27z"></path><path fill="#dd655b" d="M52.56 42.12h-3.04l.77-6.45h1.5z"></path><path fill="#f0f3f5" d="M46.8 29.82h.42c.02 0 0-.01 0 0 .68 2.23 2.1 3.31 3.74 3.45l-2.41 2.6c-.95-2.02-1.44-4.33-1.75-6.05zm8.47 0h-.42c-.02 0 0-.01 0 0-.68 2.23-2.25 3.31-3.89 3.45l2.41 2.6c.95-2.02 1.59-4.33 1.9-6.05z"></path><path fill="#dd655b" d="M47.65 43.29v7.02c-.14.12-.29.23-.42.32H16.88c-.19-.13-.36-.26-.53-.42v-7.66c0-2.02 1.62-3.58 4.2-4.59 1.42-.56 2.56-.75 4.3-1.36l.03-.01c.12-.04.23-.09.36-.13.01 0 .01 0 .03-.01.4-.14.84-.32 1.3-.52l.23-.1.06-.03.01-.01h.01l.52.07h.01l1.98.3c0 .01.01 0 .01 0l2.59.38 2.4-.35 2.18-.32h.01l.29-.04.17-.03.06-.01.26.12c.43.19.82.36 1.18.48l.26.12h.03c.09.04.19.07.27.1l.03.01c1.75.61 2.89.79 4.29 1.36 2.47.97 4.06 2.41 4.19 4.93.04.1.04.25.04.38z"></path><path fill="#e5e5e5" d="m37.06 35.78-3.22 14.84h-3.68l-3.27-14.84H36.84z"></path><path fill="#e4bf6d" d="M33.49 39.75c-.97.26-2 .26-2.97 0-1.11-.3-2.02-.71-2.58-1.94-.46-1.02-.62-2.26-.66-3.38 0 0-.01-1.32-.02-1.32h9.47l-.02 1.32c-.04 1.12-.15 2.26-.61 3.28-.55 1.23-1.5 1.74-2.61 2.04z"></path><path fill="#687e87" d="M26.27 26.77c-1-1.5-1.95-4.47-1.42-6.63.53-2.23 2.79-3.57 4.22-2.93 2.21-1.83 5.51-1.51 7.78-.14 1.81 1.08 2.78 2.76 2.73 5.08-.11 2.46-.9 3.54-2.07 4.86-.28-2.23-.65-3.36-2.03-4.65-.93 1.21-2.04 1.75-3.31 1.68l-3.47-.14c-.61.05-1.02.6-1.45 1.1l-.18-1.5c-.62.58-.52 1.27-.8 3.27z"></path><path fill="#fbd984" d="M27.03 33.2c-.5-.86-.89-1.83-1.12-3.05-.79-.67-1.19-1.36-1.39-2.47-.21-1 .07-2.08.65-2.25.68-.15.8.18 1.15.68.13-1.96.51-3.03 1.01-3.25l.17 1.5c.64-1 1.19-1.76 2.07-1.61l2.91.1c1.19-.04 2.12-.52 2.76-1.52 1.51 1.01 2.14 2.79 2.23 5.06.29-.55.58-.69.87-.75 1.25.01 1.18 1.71.82 2.75-.35.88-.7 1.34-1.23 1.89-.28 1.27-.64 2.18-1.05 2.92-.56.98-1.19 1.88-2.02 2.63-.67.61-1.53.94-2.41.95-.4.01-.83 0-1.23-.02-.92-.04-1.81-.45-2.46-1.14-.75-.82-1.29-1.67-1.73-2.42z"></path><path fill="#f37970" d="m37.55 42.78 2.22 1.51-3.54 6.33h-2.39l3.22-14.84h.06l1.7.7h.03l1.19 6.2zM30.17 50.62l-3.28-14.84-.03.01-.06.03-1.52.61-.03.02-1.29 6.23 2.5.1-2.22 1.51 3.54 6.33h2.38z"></path><path fill="#3facd7" d="M32.72 42.88h-1.43c-.21 0-.4-.13-.47-.33a9.66 9.66 0 0 1-.6-1.62c-.15-.49.21-.98.72-.98h2.14c.51 0 .87.5.72.98-.17.62-.35 1.07-.6 1.62-.08.2-.27.33-.48.33z"></path><path fill="#3facd7" d="M33.84 50.62h-3.67l.93-7.78h1.81z"></path><g fill="#f0f3f5"><path d="M26.89 35.78h.51c.02 0 0-.01 0 0 .82 2.69 2.54 4 4.52 4.17L29 43.08c-1.14-2.44-1.74-5.23-2.11-7.3z"></path><path d="M37.12 35.78h-.51c-.02 0 0-.01 0 0-.82 2.69-2.72 4-4.7 4.17l2.91 3.14c1.15-2.45 1.92-5.24 2.3-7.31z"></path></g></svg>