<svg id="SvgjsSvg1031" width="288" height="288" xmlns="http://www.w3.org/2000/svg" version="1.1" xmlns:xlink="http://www.w3.org/1999/xlink" xmlns:svgjs="http://svgjs.com/svgjs"><defs id="SvgjsDefs1032"></defs><g id="SvgjsG1033"><svg xmlns="http://www.w3.org/2000/svg" data-name="Layer 1" viewBox="0 0 64 64" width="288" height="288"><path d="M56 50h-9a2 2 0 0 0-2 2v10h13V52a2 2 0 0 0-2-2Z" fill="#ffffff" class="color000 svgShape"></path><circle cx="51.5" cy="46.75" r="3.25" fill="#ffffff" class="color000 svgShape"></circle><path d="M26 28v12a1 1 0 0 0 1 1h12a1 1 0 0 0 1-1V28a1 1 0 0 0-1-1h-5v4h-2v-4h-5a1 1 0 0 0-1 1zm32 5A25.019 25.019 0 0 0 27.792 8.544l.416 1.957A23.016 23.016 0 0 1 56 33c0 .5-.022 1.035-.057 1.583H53.5l3.5 5.834 3.5-5.834h-2.554C57.978 34.038 58 33.5 58 33zM34.5 55.932c-.5.036-.993.068-1.5.068a23.026 23.026 0 0 1-23-23c0-.638.026-1.283.079-1.918l-1.994-.164A25.82 25.82 0 0 0 8 33a25.028 25.028 0 0 0 25 25c.507 0 1-.035 1.5-.067V60.6l6-3.6-6-3.6zM13 2.2h2v2.399h-2zM2 13.2h2.4v2H2zM23.6 13.2H26v2h-2.4zM4.808 6.422l1.414-1.414 1.697 1.697L6.505 8.12zM20.081 21.695l1.414-1.414 1.697 1.697-1.414 1.414zM4.808 21.978l1.697-1.697 1.414 1.414-1.697 1.697zM20.081 6.705l1.697-1.697 1.415 1.415-1.697 1.697zM10.8 20.6v1.9h6.4v-1.9a7.2 7.2 0 0 0-3.422-13.639A7.277 7.277 0 0 0 6.8 14.183a7.193 7.193 0 0 0 4 6.417zm0 3.4v.6a3.2 3.2 0 0 0 6.4 0V24z" fill="#ffffff" class="color000 svgShape"></path></svg></g></svg>