<svg id="SvgjsSvg1100" width="288" height="288" xmlns="http://www.w3.org/2000/svg" version="1.1" xmlns:xlink="http://www.w3.org/1999/xlink" xmlns:svgjs="http://svgjs.com/svgjs"><defs id="SvgjsDefs1101"></defs><g id="SvgjsG1102"><svg xmlns="http://www.w3.org/2000/svg" enable-background="new 0 0 64 64" viewBox="0 0 64 64" width="288" height="288"><path fill="#ffffff" d="M33.5 53.4h-4.77c-.54 0-.97-.43-.97-.97V14.48c0-.54.43-.97.97-.97h9.56c.54 0 .97.43.97.97v22.25c0 .54-.43.97-.97.97-.54 0-.97-.43-.97-.97V15.45H29.7v36.01h3.8c.54 0 .97.43.97.97C34.47 52.97 34.04 53.4 33.5 53.4zM23.03 53.4h-8.18c-.54 0-.97-.43-.97-.97V26.72c0-.54.43-.97.97-.97h8.18c.54 0 .97.43.97.97v25.71C24 52.97 23.57 53.4 23.03 53.4zM15.82 51.46h6.24V27.69h-6.24V51.46zM8.68 53.4H1.43c-.54 0-.97-.43-.97-.97V36.52c0-.54.43-.97.97-.97h7.25c.54 0 .97.43.97.97v15.91C9.65 52.97 9.22 53.4 8.68 53.4zM2.4 51.46h5.31V37.49H2.4V51.46z" class="color34495c svgShape"></path><path fill="#ffffff" d="M4.56 24.16c-.59 0-.94-.04-.96-.04-.44-.05-.8-.41-.85-.85-.05-.45.21-.87.63-1.02 7.11-2.58 8.77-8.93 9.15-11.48l-3.1.17c-.4.05-.74-.18-.91-.52-.18-.34-.14-.75.1-1.05l7.05-9c.18-.23.45-.37.75-.37.29-.03.57.12.76.34l7.16 8.47c.24.29.3.69.14 1.03-.16.34-.5.56-.88.56h-3.74C17.22 23.11 7.65 24.16 4.56 24.16zM13.62 8.77c.25 0 .5.1.68.28.19.19.3.45.29.73 0 .09-.34 7.42-6.26 11.97 3.59-1.01 8.26-3.98 9.76-12.47.08-.46.48-.8.95-.8h2.45l-5.04-5.97-4.99 6.38 2.1-.11C13.58 8.77 13.6 8.77 13.62 8.77zM47.73 64c-8.72 0-15.81-7.09-15.81-15.81 0-8.72 7.09-15.81 15.81-15.81 8.72 0 15.81 7.09 15.81 15.81C63.54 56.91 56.44 64 47.73 64zM47.73 34.32c-7.65 0-13.87 6.22-13.87 13.87 0 7.65 6.22 13.87 13.87 13.87 7.65 0 13.87-6.22 13.87-13.87C61.6 40.54 55.37 34.32 47.73 34.32z" class="color00aeef svgShape"></path><path fill="#ffffff" d="M47.74,60.88c-1.41,0-2.57-1.15-2.57-2.56V58.1c-0.11-0.04-0.22-0.09-0.34-0.14
					c-2.2-0.85-3.77-2.69-4.14-4.89c-0.21-1.37,0.72-2.68,2.08-2.94c1.38-0.25,2.72,0.67,2.99,2.07c0.1,0.53,0.59,0.87,0.88,1.02
					c0.28,0.12,0.71,0.21,1.1,0.21c1.06,0,1.99-0.63,1.99-1.34c0-0.4,0-1.34-2.03-1.34c-0.04,0-0.08,0.01-0.12,0.01
					c-0.15,0.02-0.29,0.02-0.43,0.02c-1.83,0-3.39-0.61-4.64-1.8c-1.22-1.14-1.89-2.81-1.89-4.67c0-2.67,1.84-5.05,4.56-6.03v-0.23
					c0-1.41,1.15-2.57,2.57-2.57c0.44,0,0.86,0.11,1.2,0.32c0.84,0.45,1.37,1.3,1.37,2.24v0.22c2.32,0.81,4,2.63,4.44,4.9
					c0.26,1.39-0.66,2.73-2.04,3c-1.41,0.26-2.73-0.64-2.99-2.04c-0.11-0.52-0.71-0.98-1.46-1.11c-0.16-0.02-0.34-0.05-0.52-0.05
					c-1.06,0-1.99,0.63-1.99,1.34c0,0.44,0.11,0.76,0.31,0.95c0.25,0.25,0.66,0.36,1.29,0.36h0.55c5.12,0.11,6.93,3.56,6.93,6.47
					c0,2.68-1.83,5.06-4.53,6v0.22C50.31,59.73,49.16,60.88,47.74,60.88z M43.24,52.03c-0.03,0-0.07,0-0.11,0.01
					c-0.33,0.06-0.57,0.39-0.52,0.72c0.26,1.51,1.37,2.79,2.97,3.41c0.29,0.13,0.51,0.2,0.75,0.25c0.45,0.09,0.78,0.49,0.78,0.95
					v0.94c0,0.34,0.28,0.62,0.63,0.62c0.34,0,0.63-0.28,0.63-0.62v-0.94c0-0.45,0.31-0.84,0.75-0.94c2.23-0.53,3.78-2.31,3.78-4.33
					c0-1.04-0.36-4.43-5.01-4.53h-0.53c-1.17,0-2.03-0.3-2.64-0.9c-0.58-0.55-0.9-1.37-0.9-2.35c0-1.81,1.76-3.28,3.93-3.28
					c0.28,0,0.55,0.04,0.83,0.08c1.56,0.27,2.78,1.33,3.05,2.65c0.07,0.37,0.38,0.57,0.73,0.51c0.34-0.06,0.55-0.38,0.49-0.73
					c-0.34-1.74-1.77-3.12-3.74-3.6c-0.44-0.11-0.74-0.49-0.74-0.94v-0.94c0-0.23-0.13-0.43-0.34-0.53
					c-0.03-0.02-0.07-0.04-0.1-0.06c-0.02-0.01-0.09-0.03-0.18-0.03c-0.34,0-0.63,0.28-0.63,0.63v0.94c0,0.45-0.3,0.83-0.73,0.94
					c-2.25,0.56-3.82,2.36-3.82,4.37c0,1.33,0.46,2.49,1.29,3.27c0.92,0.88,2.05,1.3,3.42,1.27c0.2-0.02,0.31-0.03,0.44-0.03
					c2.48,0,3.97,1.23,3.97,3.28c0,1.81-1.76,3.28-3.93,3.28c-0.65,0-1.34-0.14-1.95-0.4c-1.1-0.6-1.76-1.44-1.94-2.41
					C43.81,52.29,43.55,52.03,43.24,52.03z" class="color00aeef svgShape"></path></svg></g></svg>