<svg id="SvgjsSvg1135" width="288" height="288" xmlns="http://www.w3.org/2000/svg" version="1.1" xmlns:xlink="http://www.w3.org/1999/xlink" xmlns:svgjs="http://svgjs.com/svgjs"><defs id="SvgjsDefs1136"></defs><g id="SvgjsG1137"><svg xmlns="http://www.w3.org/2000/svg" data-name="Layer 1" viewBox="0 0 512 512" width="288" height="288"><g data-name="&amp;lt;Group&amp;gt;" fill="#ffffff" class="color000 svgShape"><rect width="14" height="23" x="249" y="242" data-name="&amp;lt;Path&amp;gt;" fill="#ffffff" class="color000 svgShape"></rect><rect width="14" height="26.84" x="325.702" y="383.33" data-name="&amp;lt;Path&amp;gt;" transform="rotate(-53.718 332.698 396.748)" fill="#ffffff" class="color000 svgShape"></rect><rect width="28.516" height="14" x="165.718" y="389.256" data-name="&amp;lt;Path&amp;gt;" transform="rotate(-36.274 179.972 396.253)" fill="#ffffff" class="color000 svgShape"></rect><polygon points="256 283.985 219.884 295.632 256 307.279 292.116 295.632 256 283.985" data-name="&amp;lt;Path&amp;gt;" fill="#ffffff" class="color000 svgShape"></polygon><polygon points="262 385.768 308 370.958 308 305.244 262 320.055 262 385.768" data-name="&amp;lt;Path&amp;gt;" fill="#ffffff" class="color000 svgShape"></polygon><polygon points="204 370.958 248 385.123 248 319.41 204 305.244 204 370.958" data-name="&amp;lt;Path&amp;gt;" fill="#ffffff" class="color000 svgShape"></polygon><path d="M253.483 48h3.032A25.484 25.484 0 0 1 282 73.484V89.517A25.483 25.483 0 0 1 256.517 115h-3.032A25.484 25.484 0 0 1 228 89.516V73.483A25.483 25.483 0 0 1 253.483 48zM316.649 153.505a28.629 28.629 0 0 0-21-9.5h-3.694l-11.847 31.9a7.112 7.112 0 0 1-6.022 4.637 6.948 6.948 0 0 1-6.642-3.506l-11.889-21.2-10.9 21.041c-.066.129-.138.263-.213.388a7 7 0 0 1-6.735 3.366 7.237 7.237 0 0 1-5.89-4.9L221 144h-4.645a28.8 28.8 0 0 0-28.22 31.35c.024.234-.136.578-.136.814v55.322l136-.015V176.164c0-.236-.16-.472-.136-.707A28.387 28.387 0 0 0 316.649 153.505z" data-name="&amp;lt;Path&amp;gt;" fill="#ffffff" class="color000 svgShape"></path><rect width="54" height="67" x="65" y="281" data-name="&amp;lt;Path&amp;gt;" rx="25.483" ry="25.483" fill="#ffffff" class="color000 svgShape"></rect><path d="M133.117,377h-3.695l-11.847,31.5a6.9,6.9,0,0,1-6.022,4.434,7.041,7.041,0,0,1-6.642-3.606L93.022,388.069l-10.9,21.016c-.066.129-.138.25-.213.375a7,7,0,0,1-6.735,3.359,6.805,6.805,0,0,1-5.89-4.5L58.464,377H53.819a27.75,27.75,0,0,0-27.952,30.747,5.265,5.265,0,0,1,.133.612v55.323l135-.016V408.359a7.08,7.08,0,0,1,.1-.706A27.831,27.831,0,0,0,133.117,377Z" data-name="&amp;lt;Path&amp;gt;" fill="#ffffff" class="color000 svgShape"></path><rect width="54" height="67" x="390" y="281" data-name="&amp;lt;Path&amp;gt;" rx="25.483" ry="25.483" fill="#ffffff" class="color000 svgShape"></rect><path d="M458.189,377H454.5l-11.847,31.5a6.9,6.9,0,0,1-6.022,4.434,7.033,7.033,0,0,1-6.642-3.606L418.1,388.069l-10.9,21.016c-.066.129-.137.25-.212.375a7,7,0,0,1-6.736,3.359,6.805,6.805,0,0,1-5.89-4.5L383.537,377h-4.644A27.8,27.8,0,0,0,350.9,407.747a5.33,5.33,0,0,1,.1.612v55.323l135-.016V408.359a5.265,5.265,0,0,1,.133-.612A27.582,27.582,0,0,0,479.1,386.1,28.055,28.055,0,0,0,458.189,377Z" data-name="&amp;lt;Path&amp;gt;" fill="#ffffff" class="color000 svgShape"></path></g></svg></g></svg>