<svg id="SvgjsSvg1175" width="288" height="288" xmlns="http://www.w3.org/2000/svg" version="1.1" xmlns:xlink="http://www.w3.org/1999/xlink" xmlns:svgjs="http://svgjs.com/svgjs"><defs id="SvgjsDefs1176"></defs><g id="SvgjsG1177"><svg xmlns="http://www.w3.org/2000/svg" data-name="Layer 1" viewBox="0 0 512 512" width="288" height="288"><g data-name="&amp;lt;Group&amp;gt;" fill="#ffffff" class="color000 svgShape"><path d="M81.266,325.059a7.86,7.86,0,0,0,3.71,6.69L134,361.481v59.847a8.143,8.143,0,0,0,4.138,6.922l113.776,65.89a8.106,8.106,0,0,0,8.068.006l114.061-65.89A7.96,7.96,0,0,0,378,421.328v-60.09l48.823-29.489a7.993,7.993,0,0,0,.325-13.51l-42.591-28.29,42.6-28.29a8,8,0,0,0-.272-13.5l-83.521-50.7-1.723-20.419a92.35,92.35,0,0,0-31.52-62.111L304,109.639V94.6a61.753,61.753,0,0,0-12.966-37.854L262.278,19.86a7.978,7.978,0,0,0-12.592,0L220.961,56.746A61.757,61.757,0,0,0,208,94.6v15.038l-6.123,5.29a92.325,92.325,0,0,0-31.491,62.111l-1.737,20.419-83.529,50.7a8,8,0,0,0-.256,13.518l42.9,28.275-42.9,28.274A8,8,0,0,0,81.266,325.059ZM150,371.219l38.208,23.192a8.256,8.256,0,0,0,4.238,1.168,8.143,8.143,0,0,0,3.757-.918l51.8-27.19V473.336l-98-56.618ZM288,206H224V169h64Zm-10,16v13H234V222Zm-50.427,29h56.969l69.3,39.107-97.836,55.029-97.491-54.984ZM264,473.361V367.471l51.759,27.19a8,8,0,0,0,3.72.918,7.821,7.821,0,0,0,4.112-1.168L362,370.973V416.71ZM366.743,349.409l-47.555,28.98-46.453-24.4,97.026-54.662L407.8,324.586Zm2.81-68.844L294,237.858V222h2.115A7.845,7.845,0,0,0,304,214.067V202.3l28.615,15.2a8.038,8.038,0,0,0,9.875-1.852L407.705,255.3ZM325.642,178.383l1.5,18.092L304,184.173V131.216C317,143.94,324.13,160.463,325.642,178.383ZM233.578,66.589l22.451-28.8,22.406,28.8A45.674,45.674,0,0,1,288,94.6V153H224V94.6A45.693,45.693,0,0,1,233.578,66.589Zm-47.22,111.794c1.511-17.92,8.642-34.444,21.642-47.168v52.958l-23.14,12.3ZM169.5,215.649a7.973,7.973,0,0,0,6.067,2.79,8.223,8.223,0,0,0,3.816-.938L208,202.3v11.769A7.845,7.845,0,0,0,215.885,222H218v15.927L142.825,280.57l-38.491-25.3Zm-26.883,83.67,96.67,54.655-46.477,24.415L145.232,349.4l-40.988-24.784Z" data-name="&amp;lt;Compound Path&amp;gt;" fill="#ffffff" class="color000 svgShape"></path><path d="M256,126.108l.178,0a24.146,24.146,0,1,0-.178,0Zm0-32.656a8.328,8.328,0,1,1-8.328,8.328A8.545,8.545,0,0,1,256,93.452Z" data-name="&amp;lt;Compound Path&amp;gt;" fill="#ffffff" class="color000 svgShape"></path><path d="M256 312.929a8 8 0 0 0 8-8V264.964a8 8 0 1 0-16 0v39.965A8 8 0 0 0 256 312.929zM282.948 293.191a8 8 0 0 0 15.149-5.149l-8.72-25.653a8 8 0 0 0-15.148 5.15zM218.9 298.191a7.991 7.991 0 0 0 10.149-5l8.719-25.652a8 8 0 0 0-15.148-5.15l-8.72 25.653A8 8 0 0 0 218.9 298.191z" data-name="&amp;lt;Path&amp;gt;" fill="#ffffff" class="color000 svgShape"></path></g></svg></g></svg>