<svg id="SvgjsSvg1225" width="288" height="288" xmlns="http://www.w3.org/2000/svg" version="1.1" xmlns:xlink="http://www.w3.org/1999/xlink" xmlns:svgjs="http://svgjs.com/svgjs"><defs id="SvgjsDefs1226"></defs><g id="SvgjsG1227"><svg xmlns="http://www.w3.org/2000/svg" data-name="Layer 1" viewBox="0 0 64 64" width="288" height="288"><circle cx="32" cy="39.5" r="5.5" fill="#ffffff" class="color000 svgShape"></circle><path d="M22.159 45.422 17 48l-7-6-3 3 9 9 7-3v12h18V51l7 3 9-9-3-3-7 6-5.152-2.577A4 4 0 0 0 40.059 45H32l3 10-3 5-3-5 3-10h-8.053a3.994 3.994 0 0 0-1.788.422zM61 1H3a2 2 0 0 0-2 2v24a2 2 0 0 0 2 2h58a2 2 0 0 0 2-2V3a2 2 0 0 0-2-2zm0 24a2 2 0 0 1-2 2H5a2 2 0 0 1-2-2V5a2 2 0 0 1 2-2h54a2 2 0 0 1 2 2z" fill="#ffffff" class="color000 svgShape"></path><path d="m35.5 15-6-3.6V14H20v2h9.5v2.6l6-3.6zM11 21h2v2h-2zM48 6a9 9 0 1 0 9 9 9 9 0 0 0-9-9zm-.667 8h1.334a2.9 2.9 0 0 1 3 2.778A2.86 2.86 0 0 1 49 19.524v.809h-2v-.809a2.86 2.86 0 0 1-2.667-2.746h2a.923.923 0 0 0 1 .778h1.334a.923.923 0 0 0 1-.778.923.923 0 0 0-1-.778h-1.334a2.9 2.9 0 0 1-3-2.778A2.86 2.86 0 0 1 47 10.476v-.809h2v.809a2.86 2.86 0 0 1 2.667 2.746h-2a.923.923 0 0 0-1-.778h-1.334a.923.923 0 0 0-1 .778.923.923 0 0 0 1 .778zM13 19h-2v-4a1 1 0 0 1 1-1 2.5 2.5 0 1 0-2.5-2.5h-2a4.5 4.5 0 1 1 5.5 4.388z" fill="#ffffff" class="color000 svgShape"></path></svg></g></svg>