<svg xmlns="http://www.w3.org/2000/svg" viewBox="0 0 32 32" id="mutual-fund"><circle cx="6" cy="16" r=".5"></circle><path d="M21.32 13.62A5.488 5.488 0 0 0 16 9.5a5.51 5.51 0 0 0-5.5 5.5v6.5H10c-.28 0-.5.22-.5.5s.22.5.5.5h12c.28 0 .5-.22.5-.5s-.22-.5-.5-.5h-.5V14a.51.51 0 0 0-.18-.38ZM16 10.5c1.93 0 3.6 1.22 4.23 3H19c-.28 0-.5.22-.5.5v4.75s-.03 0-.04.01c-.3.2-.63.34-.96.46V17.1c.3-.27.5-.67.5-1.11 0-.83-.67-1.5-1.5-1.5v-1c.28 0 .5.22.5.5s.22.5.5.5.5-.22.5-.5c0-.83-.67-1.5-1.5-1.5v-.5c0-.28-.22-.5-.5-.5s-.5.22-.5.5v.5c-.83 0-1.5.67-1.5 1.5s.67 1.5 1.5 1.5v1c-.28 0-.5-.22-.5-.5s-.22-.5-.5-.5-.5.22-.5.5c0 .44.2.84.5 1.11v2.12a4.24 4.24 0 0 1-.96-.46c-.01 0-.02 0-.04-.01V15c0-.28-.22-.5-.5-.5h-1.45c.25-2.24 2.14-4 4.45-4Zm-2.5 9.38c.32.16.65.3 1 .4v1.22h-1v-1.62Zm2-5.38c-.28 0-.5-.22-.5-.5s.22-.5.5-.5v1Zm1 1c.28 0 .5.22.5.5s-.22.5-.5.5v-1Zm1 4.78c.35-.1.68-.24 1-.4v1.62h-1v-1.22Zm-6 1.22v-6h1v6h-1Zm4 0v-4h1v4h-1Zm4 0v-7h1v7h-1Z"></path><path d="M30 1.5h-4c-.28 0-.5.22-.5.5s.21.48.47.49l-4.54 4.54a10.399 10.399 0 0 0-10.86 0L6.03 2.49c.26-.02.47-.23.47-.49s-.22-.5-.5-.5H2c-.28 0-.5.22-.5.5v4c0 .28.22.5.5.5s.48-.21.49-.47l4.53 4.53c-.61 1.01-1.06 2.12-1.31 3.33-.06.27.12.54.39.59.27.06.54-.12.59-.39.9-4.4 4.81-7.59 9.31-7.59 5.24 0 9.5 4.26 9.5 9.5s-4.26 9.5-9.5 9.5c-4.49 0-8.41-3.19-9.31-7.59a.5.5 0 1 0-.98.2c.25 1.2.7 2.32 1.31 3.33l-4.53 4.53c-.02-.26-.23-.47-.49-.47s-.5.22-.5.5v4c0 .28.22.5.5.5h4c.28 0 .5-.22.5-.5s-.21-.48-.47-.49l4.54-4.54c1.6.97 3.46 1.53 5.43 1.53s3.85-.57 5.43-1.53l4.54 4.54c-.26.02-.47.23-.47.49s.22.5.5.5h4c.28 0 .5-.22.5-.5v-4c0-.28-.22-.5-.5-.5s-.48.21-.49.47l-4.54-4.54c.97-1.59 1.53-3.44 1.53-5.43s-.57-3.85-1.53-5.43l4.54-4.54c.02.26.23.47.49.47s.5-.22.5-.5V2c0-.28-.22-.5-.5-.5ZM7.6 9.72l-5.1-5.1V2.5h2.12l5.1 5.1c-.8.6-1.52 1.31-2.13 2.11ZM4.62 29.5H2.5v-2.12l5.1-5.1c.61.81 1.33 1.51 2.13 2.11l-5.1 5.1Zm24.88-2.12v2.12h-2.12l-5.1-5.1c.8-.6 1.52-1.32 2.12-2.12l5.1 5.1ZM22.28 7.6l5.1-5.1h2.12v2.12l-5.1 5.1c-.6-.8-1.32-1.52-2.12-2.12Z"></path></svg>